<?xml version="1.0" standalone="no"?><!DOCTYPE svg PUBLIC "-//W3C//DTD SVG 1.1//EN" "http://www.w3.org/Graphics/SVG/1.1/DTD/svg11.dtd"><svg t="1589808843737" class="icon" viewBox="0 0 1024 1024" version="1.1" xmlns="http://www.w3.org/2000/svg" p-id="2020" xmlns:xlink="http://www.w3.org/1999/xlink" width="128" height="128"><defs><style type="text/css"></style></defs><path d="M740.95487052 212.79175111c-25.23500089-16.54419911-41.90905837-9.50029275-58.45447111 15.73956267s7.70776178 59.11225837 32.94640356 75.65767111c92.72858548 60.79070815 148.0907283 162.21859082 148.09072828 271.31661274 0 179.86840652-183.81513008 360.60213097-367.46277925 360.60213096-183.64522192 0-364.01485748-180.73372445-364.01485748-360.60213096 0-109.04098133 51.87053037-210.436096 144.5190163-271.22194963 25.23014637-16.55390815 49.46511645-50.43116563 32.90999466-75.66616652-16.55876267-25.23136-33.23282015-32.26555733-58.46782103-15.71164918-123.53536 81.06196385-197.28884622 216.60982992-197.28884623 362.59976533 0 58.88895052 11.74793482 116.03876978 34.9185517 169.85596207 22.34534875 51.88752118 54.30264415 98.46055822 94.98715023 138.42538193 40.61411555 39.89564682 87.90926222 71.22064118 140.56137007 93.09874252 54.47740682 22.63176533 112.30564503 34.10906075 171.87544178 34.10906074 59.57343763 0 117.40046222-11.47729541 171.87665541-34.10906074 52.65574875-21.87810133 99.94846815-53.2030957 140.5625837-93.09874252 40.68450608-39.9648237 72.64180148-86.53786075 94.98108207-138.42538193 23.17304415-53.8171923 34.92461985-110.96701155 34.92461985-169.85596207 0.00121363-146.06153955-73.81659497-281.65552355-197.46482251-362.71384652z m0 0" fill="#bfbfbf" p-id="2021"></path><path d="M386.78861748 125.41163141h71.84201955v77.87497244c0 30.18054163 7.26600059 54.64246045 37.4453286 54.64246045 30.18054163 0 37.44047408-24.46191882 37.44047407-54.64246045v-77.87497244h71.84930133c30.179328 0 54.64124682-14.14242608 54.64124682-44.32175408 0-30.179328-24.46191882-44.32660859-54.64124682-44.32660858H386.78861748c-30.18054163 0-54.64731497 14.14728059-54.64731496 44.32660858s24.46677333 44.32175408 54.64731496 44.32175408z m0 0M496.07596563 346.87476622c-30.17811437 0-37.44532859 24.46191882-37.4453286 54.64124681v188.76916622c0 30.18175525 7.26600059 37.44532859 37.4453286 37.4453286h228.51432296c30.179328 0 54.64124682-7.2623597 54.64124682-37.4453286 0-30.17690075-24.46191882-37.43804682-54.64124682-37.4380468h-191.07384889V401.51601303c0-30.17447348-7.25993245-54.64124682-37.44047407-54.64124681z m0 0" fill="#bfbfbf" p-id="2022"></path></svg>