<?xml version="1.0" standalone="no"?><!DOCTYPE svg PUBLIC "-//W3C//DTD SVG 1.1//EN" "http://www.w3.org/Graphics/SVG/1.1/DTD/svg11.dtd"><svg t="1589809124586" class="icon" viewBox="0 0 1024 1024" version="1.1" xmlns="http://www.w3.org/2000/svg" p-id="5235" xmlns:xlink="http://www.w3.org/1999/xlink" width="128" height="128"><defs><style type="text/css"></style></defs><path d="M479.902466 702.304254l502.410598-502.413668c16.32378-16.32685 16.32378-42.795689 0-59.123562L923.209968 81.664951c-16.328897-16.328897-42.819225-16.328897-59.143005 0l-502.412644 502.43311L479.902466 702.304254 479.902466 702.304254zM302.552246 643.202181c-32.654724 32.634258-62.203714 115.121947-29.55206 147.776671 32.652677 32.633235 115.143437 3.101641 147.755182-29.55206l29.591969-29.571503L332.102259 613.650121 302.552246 643.202181 302.552246 643.202181zM905.452535 890.001123c0 23.060205-18.696828 41.794895-41.797965 41.794895L153.123958 931.796018c-23.104207 0-41.796942-18.73469-41.796942-41.794895L111.327016 137.665383c0-23.103184 18.692734-41.794895 41.796942-41.794895l543.347962 0L696.47192 12.275581 111.32497 12.275581c-46.163389 0-83.591837 37.428448-83.591837 83.593883L27.733133 931.794995c0 46.163389 37.427424 83.571371 83.591837 83.571371l794.127566 0c46.165436 0 83.591837-37.409005 83.591837-83.571371L989.044372 430.239881l-83.591837 0L905.452535 890.001123 905.452535 890.001123z" p-id="5236" fill="#8a8a8a"></path></svg>