<?xml version="1.0" standalone="no"?><!DOCTYPE svg PUBLIC "-//W3C//DTD SVG 1.1//EN" "http://www.w3.org/Graphics/SVG/1.1/DTD/svg11.dtd"><svg t="1589808865757" class="icon" viewBox="0 0 1280 1024" version="1.1" xmlns="http://www.w3.org/2000/svg" p-id="2945" xmlns:xlink="http://www.w3.org/1999/xlink" width="160" height="128"><defs><style type="text/css"></style></defs><path d="M105.6256 988.8768m-17.0752 0a17.0752 17.0752 0 1 0 34.1504 0 17.0752 17.0752 0 1 0-34.1504 0Z" p-id="2946" fill="#8a8a8a"></path><path d="M336.1792 988.8768m-17.0752 0a17.0752 17.0752 0 1 0 34.1504 0 17.0752 17.0752 0 1 0-34.1504 0Z" p-id="2947" fill="#8a8a8a"></path><path d="M644.5568 1007.1552c17.8432 0 18.8928-16.7936 18.8928-16.7936v-75.904s20.7616-2.944 58.5216 12.4672c41.2928 16.8704 46.3616 35.0208 49.8432 49.536 3.456 14.4384 12.7488 18.7904 18.2528 18.7904s19.2512 3.5584 19.2512-21.0432-14.848-50.1504-55.6544-72.8576-90.3168-25.9584-90.3168-25.9584v-45.8752h76.2624c10.0096 0 17.5616-3.072 26.8544-10.6752a32.256 32.256 0 0 0 11.5456-19.9936c25.6512-5.4784 58.0096-34.176 58.0096-67.7632 0-23.8592 0.512-40.3712 0.7936-52.0192h141.4912v99.456a451.328 451.328 0 0 0-13.7984 0.3584c-18.7904 0.896-44.7488 8.704-41.8048 34.8928 3.7376 32.6912 37.6064 28.032 50.56 21.8624 1.1008-0.5376 3.1488-0.8192 5.0432-1.1776v98.176h-25.1392v26.496h25.1392v63.8464h45.8496v-63.8464h170.6496V932.608h-107.5968v-97.6128c11.4688 0.1024 23.0656 0.0768 34.6112-0.3072 65.3568-2.1504 82.7904-29.6448 99.712-87.5264 16.9472-57.8816 15.9488-170.1888 33.152-202.5984 17.2544-32.4096 8.6528-47.5904-4.5056-54.5536-13.1072-6.9632-28.3904-5.8624-41.0112 14.5664-20.5568 23.5264-34.048 176-42.0608 222.5664-8.0128 46.5152-26.1888 48.6656-52.992 49.8944-15.1296 0.6912-54.8608 0.8704-89.9584 1.0752v-99.072h90.5472v-45.8496H762.5984c5.2224-17.92 11.2896-40.2944 17.2032-66.5088 12.4928-55.6032-44.4416-74.368-62.208-77.1584-17.6896-2.7904-27.1104-3.8144-73.0624-3.8144m0 0.0256c-45.952 0-55.3472 1.0496-73.0624 3.8144-17.7152 2.7648-74.7008 21.5296-62.208 77.1584 5.888 26.1888 11.9808 48.5632 17.2032 66.5088H180.9664v45.8496h80.5376v99.0208c-32.896-0.1792-67.7376-0.384-81.7152-1.024-26.8032-1.2288-44.9792-3.3792-52.992-49.8944-8.0128-46.5408-21.504-199.04-42.0352-222.5664-12.6208-20.4032-27.904-21.5296-41.0368-14.5664-13.1328 6.9632-21.7344 22.144-4.5056 54.5536 17.2288 32.4096 16.2304 144.7168 33.152 202.5984 16.9216 57.8816 34.3552 85.376 99.712 87.5264 11.52 0.384 23.1168 0.4096 34.6112 0.3072v97.6128H99.0976v26.496h162.4064v63.8464h45.8496v-63.8464h33.408V932.608h-33.408v-99.072c5.9648 0.384 10.88 0.9216 13.2864 2.0736 12.9536 6.1696 46.8224 10.8544 50.5344-21.8624 2.9952-26.1888-22.9888-33.9968-41.8048-34.8928a672.9728 672.9728 0 0 0-22.016-0.4608v-99.3536h144.9472c0.2816 11.648 0.768 28.1856 0.768 52.0192 0 33.6128 32.384 62.3104 58.0352 67.7632 1.3568 8.9088 6.2208 15.7184 11.5456 19.9936 9.2672 7.6032 16.8448 10.6752 26.8288 10.6752h76.2368v45.8752s-49.5104 3.2512-90.2912 25.9584-55.6288 48.256-55.6288 72.8576 13.7472 21.0432 19.2512 21.0432c5.504 0 14.7712-4.352 18.2272-18.7904 3.4816-14.4896 8.5504-32.64 49.8432-49.536 37.7344-15.4368 58.4704-12.4672 58.4704-12.4672v75.904s1.0496 16.7936 18.9184 16.7936M233.216 932.608v-98.0224l28.288-0.768v98.7904H233.216z m365.7472-217.984c18.1248 0 24.96-0.0768 27.3152-0.1536v-0.1792s2.4832 0.0768 0 0.1792v31.0528s-65.2032 1.0496-76.9792 1.0496-29.8752 11.2128-31.8976 16.384c-13.3888-4.2496-27.7248-20.8384-27.7248-33.408 0-9.0624-0.2816-33.9712-0.4352-50.5088h51.6352c6.1696 14.1312 24.4224 35.584 58.0864 35.584z m200.448 14.9248c0 12.544-14.3616 29.1584-27.7504 33.408-1.9968-5.1712-20.096-16.384-31.8464-16.384-11.8016 0-77.0048-1.0496-77.0048-1.0496v-31.0528c-2.4832-0.1024 0-0.1792 0-0.1792v0.1792c2.3552 0.0768 9.216 0.1536 27.3152 0.1536 33.6896 0 51.9168-21.4528 58.0864-35.584h51.6352c-0.2048 16.5376-0.4352 41.472-0.4352 50.5088z m261.2992 203.0592h-36.5568v-99.0464c11.1872 0.3328 23.5264 0.6912 36.5568 1.024v98.0224z" p-id="2948" fill="#8a8a8a"></path><path d="M1188.2496 988.8768m-17.0752 0a17.0752 17.0752 0 1 0 34.1504 0 17.0752 17.0752 0 1 0-34.1504 0Z" p-id="2949" fill="#8a8a8a"></path><path d="M957.696 988.8768m-17.0752 0a17.0752 17.0752 0 1 0 34.1504 0 17.0752 17.0752 0 1 0-34.1504 0Z" p-id="2950" fill="#8a8a8a"></path><path d="M1068.6464 16.512H218.7776v461.3632h849.8688V16.512z m-30.6432 435.5328H249.4464V43.9808h788.5568v408.064z" p-id="2951" fill="#8a8a8a"></path></svg>