<?xml version="1.0" standalone="no"?><!DOCTYPE svg PUBLIC "-//W3C//DTD SVG 1.1//EN" "http://www.w3.org/Graphics/SVG/1.1/DTD/svg11.dtd"><svg t="1589809048991" class="icon" viewBox="0 0 1024 1024" version="1.1" xmlns="http://www.w3.org/2000/svg" p-id="4389" xmlns:xlink="http://www.w3.org/1999/xlink" width="128" height="128"><defs><style type="text/css"></style></defs><path d="M546.632704 414.53841067l-10.374144 12.443648c64.292864 66.374656 145.18784 111.997952 244.740096 136.889344-10.375168 14.512128-20.738048 29.033472-29.036544 43.55584-41.483264-14.516224-78.813184-31.108096-116.149248-53.92896v31.112192H380.706816v-31.112192c-37.336064 22.820864-76.742656 43.553792-120.297472 62.225408-8.298496-14.519296-18.6624-26.966016-26.96704-37.34016 103.709696-41.472 190.818304-95.40096 259.262464-163.84512h53.927936zM341.2992 285.94756267h47.707136c-8.29952 18.668544-18.668544 35.260416-26.968064 51.848192h157.630464v37.336064H339.223552c-22.81472 35.260416-49.770496 66.373632-74.667008 91.259904-8.293376-10.375168-16.591872-20.740096-26.960896-33.191936 39.406592-39.401472 76.741632-89.177088 103.702528-147.257344v0.00512z m-82.95936 474.954752h321.473536c31.11424-51.851264 58.082304-101.623808 78.820352-151.406592l41.481216 22.821888c-24.896512 43.552768-49.78176 87.108608-74.665984 128.584704h134.812672v39.407616H258.33984v-39.407616z m53.922816-122.366976l35.255296-18.665472c22.81984 35.262464 41.488384 72.593408 60.15488 109.930496l-37.33504 20.737024c-16.591872-39.407616-35.260416-76.739584-58.075136-112.002048z m85.035008-170.074112c-14.519296-20.738048-31.107072-39.405568-45.630464-58.068992l29.038592-20.744192c16.590848 16.596992 33.184768 33.188864 49.77664 53.927936l-33.184768 24.885248z m112-12.439552c-35.260416 33.183744-74.667008 64.297984-120.291328 91.25376h234.364928c-41.478144-24.886272-78.813184-55.998464-114.0736-91.25376z m-41.479168 155.55584l37.332992-10.37312c14.521344 39.404544 26.960896 80.888832 37.33504 120.2944l-41.48224 12.448768c-8.29952-43.56096-18.668544-85.044224-33.186816-122.37312v0.003072z m111.99488-325.629952h45.63456c-8.298496 18.668544-16.598016 35.260416-24.896512 51.848192h174.230528v37.336064H577.741824c-10.368 14.516224-18.66752 29.037568-26.96192 39.406592-14.521344-8.2944-26.96704-14.5152-39.406592-18.666496 29.032448-31.10912 49.77152-68.442112 68.440064-109.924352z m89.186304 188.741632c-16.590848-18.66752-37.334016-39.411712-62.219264-60.150784l26.959872-24.890368c24.892416 20.744192 45.630464 39.407616 64.297984 58.074112l-29.038592 26.962944v0.004096z m223.998976-188.741632c0 10.858496 4.47488 21.651456 12.153856 29.330432 7.676928 7.68 18.471936 12.152832 29.328384 12.152832 10.85952 0 21.65248-4.472832 29.329408-12.152832 7.68-7.68 12.148736-18.471936 12.148736-29.330432 0-10.862592-4.468736-21.655552-12.148736-29.333504-7.676928-7.678976-18.468864-12.143616-29.329408-12.143616-10.856448 0-21.651456 4.46464-29.328384 12.143616-7.678976 7.677952-12.153856 18.469888-12.153856 29.333504z m48.692224 88.82176c13.298688 42.380288 20.473856 87.472128 20.473856 134.24128 0 247.323648-200.497152 447.819776-447.822848 447.819776-247.324672 0-447.8208-200.496128-447.8208-447.819776 0-247.32672 200.496128-447.822848 447.8208-447.822848 133.060608 0 252.565504 58.034176 334.588928 150.1696h79.1552C835.545088 82.95082667 684.709888-0.64750933 514.341888-0.64750933 232.866816-0.64750933 4.685824 227.53348267 4.685824 509.01060267 4.685824 790.48669867 232.866816 1018.66666667 514.341888 1018.66666667 795.819008 1018.66666667 1024 790.48669867 1024 509.01060267c0-46.461952-6.2208-91.469824-17.8688-134.24128h-64.44032z" fill="#8a8a8a" p-id="4390"></path></svg>